<mxfile host="app.diagrams.net" agent="Mozilla/5.0 (Macintosh; Intel Mac OS X 10_15_7) AppleWebKit/537.36 (KHTML, like Gecko) Chrome/138.0.0.0 Safari/537.36" version="28.0.4">
  <diagram name="Page-1" id="C_lDhKR9Q4CI75PntMAz">
    <mxGraphModel dx="1731" dy="1107" grid="1" gridSize="10" guides="1" tooltips="1" connect="1" arrows="1" fold="1" page="1" pageScale="1" pageWidth="827" pageHeight="1169" math="0" shadow="0">
      <root>
        <mxCell id="0" />
        <mxCell id="1" parent="0" />
        <mxCell id="2KT_oRtnugvlfOOD5CJe-13" style="edgeStyle=orthogonalEdgeStyle;rounded=0;orthogonalLoop=1;jettySize=auto;html=1;" edge="1" parent="1" source="2KT_oRtnugvlfOOD5CJe-1">
          <mxGeometry relative="1" as="geometry">
            <mxPoint x="660" y="390" as="targetPoint" />
          </mxGeometry>
        </mxCell>
        <mxCell id="2KT_oRtnugvlfOOD5CJe-14" value="Pull Request (Feature Branch)" style="edgeLabel;html=1;align=center;verticalAlign=middle;resizable=0;points=[];" vertex="1" connectable="0" parent="2KT_oRtnugvlfOOD5CJe-13">
          <mxGeometry x="0.5956" relative="1" as="geometry">
            <mxPoint as="offset" />
          </mxGeometry>
        </mxCell>
        <mxCell id="2KT_oRtnugvlfOOD5CJe-1" value="Contributor" style="shape=umlActor;verticalLabelPosition=bottom;verticalAlign=top;html=1;outlineConnect=0;" vertex="1" parent="1">
          <mxGeometry x="120" y="240" width="30" height="60" as="geometry" />
        </mxCell>
        <mxCell id="2KT_oRtnugvlfOOD5CJe-15" style="edgeStyle=orthogonalEdgeStyle;rounded=0;orthogonalLoop=1;jettySize=auto;html=1;" edge="1" parent="1" source="2KT_oRtnugvlfOOD5CJe-2" target="2KT_oRtnugvlfOOD5CJe-4">
          <mxGeometry relative="1" as="geometry" />
        </mxCell>
        <mxCell id="2KT_oRtnugvlfOOD5CJe-16" value="PR(Feature Branch)" style="edgeLabel;html=1;align=center;verticalAlign=middle;resizable=0;points=[];" vertex="1" connectable="0" parent="2KT_oRtnugvlfOOD5CJe-15">
          <mxGeometry relative="1" as="geometry">
            <mxPoint as="offset" />
          </mxGeometry>
        </mxCell>
        <mxCell id="2KT_oRtnugvlfOOD5CJe-2" value="Contributor" style="shape=umlActor;verticalLabelPosition=bottom;verticalAlign=top;html=1;outlineConnect=0;" vertex="1" parent="1">
          <mxGeometry x="120" y="410" width="30" height="60" as="geometry" />
        </mxCell>
        <mxCell id="2KT_oRtnugvlfOOD5CJe-3" value="Contributor" style="shape=umlActor;verticalLabelPosition=bottom;verticalAlign=top;html=1;outlineConnect=0;" vertex="1" parent="1">
          <mxGeometry x="120" y="570" width="30" height="60" as="geometry" />
        </mxCell>
        <mxCell id="2KT_oRtnugvlfOOD5CJe-4" value="Git Repo (Master)" style="rounded=0;whiteSpace=wrap;html=1;" vertex="1" parent="1">
          <mxGeometry x="610" y="400" width="120" height="60" as="geometry" />
        </mxCell>
        <mxCell id="2KT_oRtnugvlfOOD5CJe-5" value="" style="endArrow=none;html=1;rounded=0;" edge="1" parent="1" source="2KT_oRtnugvlfOOD5CJe-7">
          <mxGeometry width="50" height="50" relative="1" as="geometry">
            <mxPoint x="480" y="680" as="sourcePoint" />
            <mxPoint x="480" y="200" as="targetPoint" />
          </mxGeometry>
        </mxCell>
        <mxCell id="2KT_oRtnugvlfOOD5CJe-6" value="" style="endArrow=none;html=1;rounded=0;" edge="1" parent="1" target="2KT_oRtnugvlfOOD5CJe-7">
          <mxGeometry width="50" height="50" relative="1" as="geometry">
            <mxPoint x="480" y="800" as="sourcePoint" />
            <mxPoint x="480" y="200" as="targetPoint" />
          </mxGeometry>
        </mxCell>
        <mxCell id="2KT_oRtnugvlfOOD5CJe-7" value="Approver" style="shape=umlActor;verticalLabelPosition=bottom;verticalAlign=top;html=1;outlineConnect=0;" vertex="1" parent="1">
          <mxGeometry x="465" y="200" width="30" height="60" as="geometry" />
        </mxCell>
        <mxCell id="2KT_oRtnugvlfOOD5CJe-10" value="Controbutor" style="shape=umlActor;verticalLabelPosition=bottom;verticalAlign=top;html=1;outlineConnect=0;" vertex="1" parent="1">
          <mxGeometry x="120" y="710" width="30" height="60" as="geometry" />
        </mxCell>
        <mxCell id="2KT_oRtnugvlfOOD5CJe-17" style="edgeStyle=orthogonalEdgeStyle;rounded=0;orthogonalLoop=1;jettySize=auto;html=1;entryX=0.417;entryY=1.017;entryDx=0;entryDy=0;entryPerimeter=0;" edge="1" parent="1" source="2KT_oRtnugvlfOOD5CJe-3" target="2KT_oRtnugvlfOOD5CJe-4">
          <mxGeometry relative="1" as="geometry" />
        </mxCell>
        <mxCell id="2KT_oRtnugvlfOOD5CJe-19" value="Pull Request (Feature Branch)" style="edgeLabel;html=1;align=center;verticalAlign=middle;resizable=0;points=[];" vertex="1" connectable="0" parent="2KT_oRtnugvlfOOD5CJe-17">
          <mxGeometry x="-0.057" relative="1" as="geometry">
            <mxPoint as="offset" />
          </mxGeometry>
        </mxCell>
        <mxCell id="2KT_oRtnugvlfOOD5CJe-18" style="edgeStyle=orthogonalEdgeStyle;rounded=0;orthogonalLoop=1;jettySize=auto;html=1;entryX=0.917;entryY=1.05;entryDx=0;entryDy=0;entryPerimeter=0;" edge="1" parent="1" source="2KT_oRtnugvlfOOD5CJe-10" target="2KT_oRtnugvlfOOD5CJe-4">
          <mxGeometry relative="1" as="geometry" />
        </mxCell>
        <mxCell id="2KT_oRtnugvlfOOD5CJe-20" value="Pull Request ( Feature Branch)" style="edgeLabel;html=1;align=center;verticalAlign=middle;resizable=0;points=[];" vertex="1" connectable="0" parent="2KT_oRtnugvlfOOD5CJe-18">
          <mxGeometry x="-0.3436" y="3" relative="1" as="geometry">
            <mxPoint as="offset" />
          </mxGeometry>
        </mxCell>
        <mxCell id="2KT_oRtnugvlfOOD5CJe-21" value="V1" style="text;html=1;align=center;verticalAlign=middle;resizable=0;points=[];autosize=1;strokeColor=none;fillColor=none;" vertex="1" parent="1">
          <mxGeometry x="750" y="408" width="40" height="30" as="geometry" />
        </mxCell>
        <mxCell id="2KT_oRtnugvlfOOD5CJe-22" value="V1.1" style="text;html=1;align=center;verticalAlign=middle;resizable=0;points=[];autosize=1;strokeColor=none;fillColor=none;" vertex="1" parent="1">
          <mxGeometry x="745" y="448" width="50" height="30" as="geometry" />
        </mxCell>
      </root>
    </mxGraphModel>
  </diagram>
</mxfile>
